<svg xmlns="http://www.w3.org/2000/svg" width="60" height="51" viewBox="0 0 60 51">
  <g id="cloud-computing" transform="translate(0 -4.5)">
    <path id="Path_6042" data-name="Path 6042" d="M50.976,20.694A17.124,17.124,0,0,0,34.084,4.5a17.624,17.624,0,0,0-13.945,7.008c-.075-.039-.154-.066-.23-.1-.2-.1-.4-.187-.6-.269-.114-.045-.228-.086-.343-.126-.2-.071-.409-.134-.619-.191-.115-.031-.229-.063-.345-.089-.225-.051-.455-.09-.687-.125-.1-.015-.2-.035-.3-.046A8.973,8.973,0,0,0,7,19.5c0,.129.008.255.017.381A13.826,13.826,0,0,0,0,31.654,12.86,12.86,0,0,0,12.845,44.5H18a1,1,0,0,0,0-2H12.845A10.857,10.857,0,0,1,2,31.654,11.887,11.887,0,0,1,8.433,21.4L9,21.13V20.5c0-.12.008-.242.015-.365l.011-.185-.013-.194C9.007,19.671,9,19.586,9,19.5a6.953,6.953,0,0,1,7.917-6.933c.078.01.156.023.233.036a6.817,6.817,0,0,1,.789.177c.035.01.071.017.106.027a6.812,6.812,0,0,1,.835.321c.071.032.14.067.21.1A6.985,6.985,0,0,1,23,19.5a1,1,0,0,0,2,0,8.979,8.979,0,0,0-3.2-6.871A15.84,15.84,0,0,1,34.084,6.5,15.1,15.1,0,0,1,48.933,20.388a19.1,19.1,0,0,0-4.083.124A1,1,0,0,0,45,22.5a.961.961,0,0,0,.151-.012,18.369,18.369,0,0,1,4.684,0A10.249,10.249,0,0,1,58,32.472,10.04,10.04,0,0,1,47.972,42.5H44a1,1,0,0,0,0,2h3.972A12.042,12.042,0,0,0,60,32.472,12.307,12.307,0,0,0,50.976,20.694Z" fill="#f60"/>
    <path id="Path_6043" data-name="Path 6043" d="M38.293,45.793,32,52.086V31.5a1,1,0,0,0-2,0V52.086l-6.293-6.293a1,1,0,0,0-1.414,1.414l8,8a1,1,0,0,0,1.416,0l8-8a1,1,0,0,0-1.414-1.414Z" transform="translate(62 86) rotate(180)" fill="#f60"/>
  </g>
</svg>
