<svg id="Group_2167" data-name="Group 2167" xmlns="http://www.w3.org/2000/svg" width="286.088" height="51.364" viewBox="0 0 286.088 51.364">
  <g id="Path_6013" data-name="Path 6013" fill="#eee">
    <path d="M 275.0344543457031 50.86377716064453 L 11.05374050140381 50.86377716064453 C 8.175026893615723 50.86377716064453 5.476455211639404 50.32570648193359 3.455169439315796 49.34867095947266 C 1.57709789276123 48.44084930419922 0.4999907612800598 47.22788619995117 0.4999907612800598 46.02070617675781 L 0.4999907612800598 5.343063354492188 C 0.4999907612800598 4.135884761810303 1.57709789276123 2.92292046546936 3.455169439315796 2.015099048614502 C 5.476455211639404 1.038063287734985 8.175026893615723 0.4999918937683105 11.05374050140381 0.4999918937683105 L 275.0344543457031 0.4999918937683105 C 277.9131774902344 0.4999918937683105 280.6117553710938 1.038063287734985 282.6330261230469 2.015099048614502 C 284.5111083984375 2.92292046546936 285.5881958007813 4.135884761810303 285.5881958007813 5.343063354492188 L 285.5881958007813 46.02070617675781 C 285.5881958007813 47.22788619995117 284.5111083984375 48.44084930419922 282.6330261230469 49.34867095947266 C 280.6117553710938 50.32570648193359 277.9131774902344 50.86377716064453 275.0344543457031 50.86377716064453 Z" stroke="none"/>
    <path d="M 11.05374145507813 0.9999923706054688 C 5.12890625 0.9999923706054688 1 3.288848876953125 1 5.343063354492188 L 1 46.02070617675781 C 1 48.07492065429688 5.12890625 50.36377716064453 11.05374145507813 50.36377716064453 L 275.0344543457031 50.36377716064453 C 280.9592895507813 50.36377716064453 285.0881958007813 48.07492065429688 285.0881958007813 46.02070617675781 L 285.0881958007813 5.343063354492188 C 285.0881958007813 3.288848876953125 280.9592895507813 0.9999923706054688 275.0344543457031 0.9999923706054688 L 11.05374145507813 0.9999923706054688 M 11.05374145507813 -7.62939453125e-06 L 275.0344543457031 -7.62939453125e-06 C 281.1391906738281 -7.62939453125e-06 286.0881958007813 2.392169952392578 286.0881958007813 5.343063354492188 L 286.0881958007813 46.02070617675781 C 286.0881958007813 48.97159957885742 281.1391906738281 51.36377716064453 275.0344543457031 51.36377716064453 L 11.05374145507813 51.36377716064453 C 4.94891357421875 51.36377716064453 0 48.97159957885742 0 46.02070617675781 L 0 5.343063354492188 C 0 2.392169952392578 4.94891357421875 -7.62939453125e-06 11.05374145507813 -7.62939453125e-06 Z" stroke="none" fill="#f5f7f9"/>
  </g>
  <path id="Path_6010" data-name="Path 6010" d="M6317-1084v37.414" transform="translate(-6252.182 1091.195)" fill="none" stroke="#f5f7f9" stroke-width="1"/>
  <path id="Path_6011" data-name="Path 6011" d="M0,0,6.521,7.119l3.43-3.594L13.316,0" transform="translate(33.405 19.083) rotate(90)" fill="none" stroke="#747474" stroke-linejoin="round" stroke-width="2"/>
  <path id="Path_6012" data-name="Path 6012" d="M0,7.119,6.521,0l3.43,3.594,3.365,3.525" transform="translate(250.954 19.083) rotate(90)" fill="none" stroke="#747474" stroke-linejoin="round" stroke-width="2"/>
  <path id="Path_6015" data-name="Path 6015" d="M6317-1084v37.414" transform="translate(-6099.182 1091.195)" fill="none" stroke="#f5f7f9" stroke-width="1"/>
</svg>
