<svg id="school" xmlns="http://www.w3.org/2000/svg" width="30.756" height="31.199" viewBox="0 0 30.756 31.199">
  <path id="Path_6055" data-name="Path 6055" d="M14.277,8.776l1.663.978a2.718,2.718,0,0,1,1.422-.624L29.112,7.687a.547.547,0,1,1,.133,1.086L17.495,10.216a1.626,1.626,0,0,0-.509.154l12.188,7.183,14.9-8.777L29.174,0Zm0,0" transform="translate(-13.315 0)" fill="#ff8e42"/>
  <path id="Path_6056" data-name="Path 6056" d="M82.855,187.385l-10.66-6.28V186.8c0,1.506,1.3,2.969,3.571,4.015a19.4,19.4,0,0,0,14.733,0c2.269-1.046,3.571-2.51,3.571-4.015v-5.693l-10.66,6.28a.548.548,0,0,1-.556,0Zm0,0" transform="translate(-67.273 -168.725)" fill="#ff8e42"/>
  <path id="Path_6057" data-name="Path 6057" d="M3.477,358.407l-1.094-6.016L.2,359.5Zm0,0" transform="translate(-0.195 -328.302)" fill="#ff8e42"/>
  <path id="Path_6058" data-name="Path 6058" d="M11.547,155.4a1.635,1.635,0,0,0-1.094-1.54v-9.064a1.663,1.663,0,0,1,.93-1.474l-1.042-.616a2.742,2.742,0,0,0-.681.868,2.708,2.708,0,0,0-.3,1.221v9.064a1.638,1.638,0,1,0,2.188,1.54Zm0,0" transform="translate(-7.719 -132.948)" fill="#ff8e42"/>
</svg>
