<svg id="star" xmlns="http://www.w3.org/2000/svg" width="25.254" height="24.082" viewBox="0 0 25.254 24.082">
  <path id="Path_6074" data-name="Path 6074" d="M24.658,20.577l-8.18-.759-3.249-7.545a.655.655,0,0,0-1.2,0L8.775,19.818.6,20.577a.655.655,0,0,0-.372,1.145L6.4,27.144,4.589,35.157a.655.655,0,0,0,.974.708l7.064-4.194,7.064,4.194a.655.655,0,0,0,.974-.708l-1.806-8.014,6.172-5.422A.655.655,0,0,0,24.658,20.577Z" transform="translate(0 -11.877)" fill="#ffad77"/>
  <path id="Path_6075" data-name="Path 6075" d="M13.229,12.273a.655.655,0,0,0-1.2,0L8.775,19.818.6,20.577a.655.655,0,0,0-.372,1.145L6.4,27.144,4.589,35.157a.655.655,0,0,0,.974.708l1.577-.936A28.91,28.91,0,0,1,14.835,16Z" transform="translate(0 -11.877)" fill="#f60"/>
</svg>
