<svg id="university" xmlns="http://www.w3.org/2000/svg" width="35" height="35" viewBox="0 0 35 35">
  <g id="Group_2189" data-name="Group 2189" transform="translate(0 0)">
    <g id="Group_2188" data-name="Group 2188">
      <path id="Path_6059" data-name="Path 6059" d="M187.733,260.083a.584.584,0,0,0,.583.583h2.333a.584.584,0,0,0,.583-.583v-3.5a.584.584,0,0,0-.583-.583h-2.333a.584.584,0,0,0-.583.583v3.5Zm1.167-2.917h1.167V259.5H188.9Z" transform="translate(-174.9 -238.5)" fill="#ff8e42"/>
      <path id="Path_6060" data-name="Path 6060" d="M188.317,158.268h2.333a.584.584,0,0,0,.583-.583v-3.5a.584.584,0,0,0-.583-.583h-2.333a.584.584,0,0,0-.583.583v3.5A.583.583,0,0,0,188.317,158.268Zm.583-3.5h1.167V157.1H188.9Z" transform="translate(-174.901 -143.101)" fill="#ff8e42"/>
      <path id="Path_6061" data-name="Path 6061" d="M120.35,11l8.45-5.07,8.45,5.07a.583.583,0,0,0,.6-1l-8.467-5.08V1.167H132.3V2.333h-1.75a.583.583,0,1,0,0,1.167h2.333a.584.584,0,0,0,.583-.583V.583A.584.584,0,0,0,132.883,0H128.8a.584.584,0,0,0-.583.583V4.92L119.749,10a.583.583,0,0,0,.6,1Z" transform="translate(-111.3 0)" fill="#ff8e42"/>
      <path id="Path_6062" data-name="Path 6062" d="M54.117,260.668a.584.584,0,0,0,.583-.583v-3.5a.584.584,0,0,0-.583-.583H51.783a.584.584,0,0,0-.583.583v1.167a.583.583,0,1,0,1.167,0v-.583h1.167v2.917A.584.584,0,0,0,54.117,260.668Z" transform="translate(-47.7 -238.501)" fill="#ff8e42"/>
      <path id="Path_6063" data-name="Path 6063" d="M137.7,196.7V179.783a.583.583,0,0,0-1.167,0V196.7a.583.583,0,1,0,1.167,0Z" transform="translate(-127.201 -166.95)" fill="#ff8e42"/>
      <path id="Path_6064" data-name="Path 6064" d="M102.983,366.569h19.833a.583.583,0,1,0,0-1.167h-5.25v-5.833h.583a.583.583,0,1,0,0-1.167h-10.5a.583.583,0,1,0,0,1.167h.583V365.4h-5.25a.583.583,0,0,0,0,1.167Zm10.5-3.5a.583.583,0,0,0,0-1.167v-2.333H116.4V365.4h-2.917v-2.333Zm-4.083-3.5h2.917V361.9a.583.583,0,1,0,0,1.167V365.4H109.4Z" transform="translate(-95.4 -333.902)" fill="#ff8e42"/>
      <path id="Path_6065" data-name="Path 6065" d="M412.518,366.933h-2.333a.584.584,0,0,0-.583.583v3.5a.584.584,0,0,0,.583.583h2.333a.584.584,0,0,0,.583-.583v-3.5A.584.584,0,0,0,412.518,366.933Zm-.583,3.5h-1.167V368.1h1.167Z" transform="translate(-381.601 -341.85)" fill="#ff8e42"/>
      <path id="Path_6066" data-name="Path 6066" d="M412.518,264.533h-2.333a.584.584,0,0,0-.583.583v3.5a.584.584,0,0,0,.583.583h2.333a.584.584,0,0,0,.583-.583v-3.5A.584.584,0,0,0,412.518,264.533Zm-.583,3.5h-1.167V265.7h1.167Z" transform="translate(-381.601 -246.45)" fill="#ff8e42"/>
      <path id="Path_6067" data-name="Path 6067" d="M93.35,494.933H68.85a.583.583,0,0,0,0,1.167h24.5a.583.583,0,0,0,0-1.167Z" transform="translate(-63.6 -461.1)" fill="#ff8e42"/>
      <path id="Path_6068" data-name="Path 6068" d="M400.117,187.733a.584.584,0,0,0-.583.583v.583h-6.417a.583.583,0,1,0,0,1.167h6.417v19.25a.583.583,0,0,0,1.167,0v-21A.584.584,0,0,0,400.117,187.733Z" transform="translate(-365.701 -174.9)" fill="#ff8e42"/>
      <path id="Path_6069" data-name="Path 6069" d="M273.067,260.083a.584.584,0,0,0,.583.583h2.333a.584.584,0,0,0,.583-.583v-3.5a.584.584,0,0,0-.583-.583H273.65a.584.584,0,0,0-.583.583Zm1.167-2.917H275.4V259.5h-1.167Z" transform="translate(-254.4 -238.5)" fill="#ff8e42"/>
      <path id="Path_6070" data-name="Path 6070" d="M5.833,314.783c0-.076-.033-7.583-2.917-7.583S0,314.708,0,314.783a2.922,2.922,0,0,0,2.333,2.858v2.976a.583.583,0,1,0,1.167,0v-2.976A2.922,2.922,0,0,0,5.833,314.783Zm-2.917,1.75a1.752,1.752,0,0,1-1.75-1.75c0-2.906.781-6.417,1.75-6.417s1.75,3.511,1.75,6.417A1.752,1.752,0,0,1,2.917,316.533Z" transform="translate(0 -286.2)" fill="#ff8e42"/>
      <path id="Path_6071" data-name="Path 6071" d="M359.568,188.75v-17.5a.583.583,0,0,0-1.167,0v17.5a.583.583,0,0,0,1.167,0Z" transform="translate(-333.901 -159)" fill="#ff8e42"/>
      <path id="Path_6072" data-name="Path 6072" d="M273.65,158.268h2.333a.584.584,0,0,0,.583-.583v-3.5a.584.584,0,0,0-.583-.583H273.65a.584.584,0,0,0-.583.583v3.5A.584.584,0,0,0,273.65,158.268Zm.583-3.5H275.4V157.1h-1.167Z" transform="translate(-254.4 -143.101)" fill="#ff8e42"/>
      <path id="Path_6073" data-name="Path 6073" d="M.583,195.318a.584.584,0,0,0,.583-.583v-4.667H7.583a.583.583,0,1,0,0-1.167H1.167v-.583a.583.583,0,0,0-1.167,0v6.417A.584.584,0,0,0,.583,195.318Z" transform="translate(0 -174.902)" fill="#ff8e42"/>
    </g>
  </g>
</svg>
