<svg id="wallet" xmlns="http://www.w3.org/2000/svg" width="31.654" height="35.667" viewBox="0 0 31.654 35.667">
  <path id="Path_28" data-name="Path 28" d="M119.353,53.216l8.279-15.309a1.536,1.536,0,0,1,2.07-.625l10.857,5.858a1.536,1.536,0,0,1,.625,2.07l-4.335,8.006Z" transform="translate(-109.707 -33.482)" fill="#f60"/>
  <g id="Group_2" data-name="Group 2" transform="translate(0 0)">
    <path id="Path_29" data-name="Path 29" d="M50.311,6.1,44.453,2.941h0L40.548.832h0L39.455.246a2.281,2.281,0,0,0-3.007.9l-6.4,11.833H22.31a1.75,1.75,0,0,0-1.757,1.757V33.91a1.75,1.75,0,0,0,1.757,1.757h24.72a1.75,1.75,0,0,0,1.757-1.757V29.419h.742a.7.7,0,0,0,.7-.7V23.6a.7.7,0,0,0-.7-.7h-.742V17.859a1.794,1.794,0,0,0-1.367-1.718l3.788-7.03A2.21,2.21,0,0,0,50.311,6.1ZM37.7,1.808a.875.875,0,0,1,1.133-.351l1.093.586L32.308,16.1H29.965Zm4.882,1.679L35.784,16.1H33.87l7.264-13.4ZM22.31,14.344h7.03L28.4,16.063H22.31a1.329,1.329,0,0,0-.391.039V14.7A.386.386,0,0,1,22.31,14.344Zm26.517,9.919v3.749h-4.1a.7.7,0,0,1-.7-.7V24.928a.7.7,0,0,1,.7-.7h4.1ZM50,8.447,45.859,16.1H37.346l6.444-11.95,5.858,3.163A.816.816,0,0,1,50,8.447Z" transform="translate(-20.553 0)" fill="#f5f7f9"/>
    <path id="Path_30" data-name="Path 30" d="M262.6,75.989l-.352-.2a1.9,1.9,0,0,0-2.5.742l-.43.82a1.952,1.952,0,0,0-.156,1.406,1.922,1.922,0,0,0,.9,1.093l.352.2a1.78,1.78,0,0,0,.859.234,1.873,1.873,0,0,0,1.64-.976l.43-.82a1.952,1.952,0,0,0,.156-1.406A1.922,1.922,0,0,0,262.6,75.989Zm-.469,1.835-.43.82a.455.455,0,0,1-.625.2l-.351-.2a.413.413,0,0,1-.234-.273.379.379,0,0,1,.039-.351l.43-.82a.43.43,0,0,1,.391-.234.5.5,0,0,1,.234.039l.351.2a.413.413,0,0,1,.234.273A.38.38,0,0,1,262.13,77.825Z" transform="translate(-235.808 -68.206)" fill="#f5f7f9"/>
  </g>
</svg>
